<?xml version="1.0" encoding="UTF-8" standalone="no"?>
<svg
   version="1.0"
   width="98.133827pt"
   height="67pt"
   viewBox="0 0 98.133827 67"
   preserveAspectRatio="xMidYMid"
   id="svg632"
   sodipodi:docname="cccc.svg"
   inkscape:version="1.2 (dc2aeda, 2022-05-15)"
   xmlns:inkscape="http://www.inkscape.org/namespaces/inkscape"
   xmlns:sodipodi="http://sodipodi.sourceforge.net/DTD/sodipodi-0.dtd"
   xmlns="http://www.w3.org/2000/svg"
   xmlns:svg="http://www.w3.org/2000/svg">
  <defs
     id="defs636" />
  <sodipodi:namedview
     id="namedview634"
     pagecolor="#ffffff"
     bordercolor="#666666"
     borderopacity="1.0"
     inkscape:showpageshadow="2"
     inkscape:pageopacity="0.0"
     inkscape:pagecheckerboard="0"
     inkscape:deskcolor="#d1d1d1"
     inkscape:document-units="pt"
     showgrid="false"
     inkscape:zoom="2.1666667"
     inkscape:cx="86.538462"
     inkscape:cy="106.84615"
     inkscape:window-width="1366"
     inkscape:window-height="717"
     inkscape:window-x="0"
     inkscape:window-y="20"
     inkscape:window-maximized="1"
     inkscape:current-layer="svg632" />
  <metadata
     id="metadata520">
Created by potrace 1.10, written by Peter Selinger 2001-2011
</metadata>
  <path
     d="m 24.084442,8 c -10.9,11.1 -15.4000003,12 -19.1000003,3.5 l -1.2,-3 -0.8,3 c -0.4,1.6 -1.3,4.3 -2.10000001,5.8 -1.30000004,2.6 -1.30000004,3.2 0.90000001,6.3 1.3,1.8 2.8,3.5 3.3,3.7 2.9,1.1 8.4000003,-2 14.6000003,-8.1 11.6,-11.6 10.1,-11 15.2,-6.8 2.4,1.9 4.9,4.7 5.7,6.1 1.7,3.2 2.6,3.2 3.8,-0.4 0.6,-1.7 2.4,-3.7 4.2,-4.6 5.2,-2.7 10.2,-0.2 19.7,9.9 4.3,4.6 8.8,8.8 10,9.5 6.3,3.3 12.8,-0.6 17.4,-10.3 1.6,-3.3 2.7,-6.2 2.4,-6.4 -0.2,-0.2 -1.8,1.2 -3.4,3.1 -6.2,7 -11.4,5.4 -22.3,-6.7 -7.1,-7.8 -14.3,-12.2 -18.3,-11.2 -1.4,0.4 -4,2.2 -6,4.1 -1.9,2 -3.5,3 -3.5,2.2 0,-1.8 -7.9,-7.7 -10.5,-7.7 -1.3,0 -5.1,3 -10,8 z"
     id="path538"
     style="fill:#5d4d7a;fill-opacity:1;stroke:none;stroke-width:0.1"
     sodipodi:nodetypes="ccccccccccccccccccccssc" />
  <path
     d="m 83.084442,28.6 c 1.7,1.7 2.2,1.7 2.8,0.1 0.3,-0.7 -0.5,-1.3 -1.9,-1.3 -2,-0.2 -2.1,0 -0.9,1.2 z"
     id="path540"
     style="fill:#5d4d7a;fill-opacity:1;stroke:none;stroke-width:0.1" />
  <path
     d="m 35.984442,23.7 c -1.5,2.1 -3.9,5.4 -5.3,7.3 -6.9,9.3 -13.5,21.1 -14.5,25.7 -0.6,2.7 -0.3,3.4 1.9,4.9 2.4,1.5 2.8,1.5 6.9,0 2.4,-0.9 7.8,-4.6 12.1,-8.1 4.3,-3.6 8.1,-6.5 8.6,-6.5 0.8,0 7.2,-10 6.7,-10.5 -0.2,-0.2 -2.4,1.4 -4.8,3.6 -6.1,5.4 -15,11.4 -18,12.2 -4.2,1.1 -7,-0.2 -7,-3.2 0.1,-3.3 1.7,-6.2 10.4,-18.5 3.7,-5.3 6.6,-9.9 6.3,-10.2 -0.3,-0.3 -1.8,1.2 -3.3,3.3 z"
     id="path576"
     style="fill:#5d4d7a;fill-opacity:1;stroke:none;stroke-width:0.1"
     sodipodi:nodetypes="scccccssccccss" />
  <path
     d="m 56.684442,35.8 c -2.6,4 -2.8,4.9 -1.6,6.1 2.246783,0.726308 3.9337,3.066541 4.7,5.3 1.7,3.4 2.2,6 2.3,12 0,4.3 0.2,7.8 0.5,7.8 2.6,0 6.6,-15.3 5.7,-21.9 -0.7,-5.2 -3.4,-10.7 -6.2,-12.5 -2.2,-1.5 -2.4,-1.4 -5.4,3.2 z"
     id="path594"
     style="fill:#5d4d7a;fill-opacity:1;stroke:none;stroke-width:0.1"
     sodipodi:nodetypes="ccccsccc" />
</svg>
