<?xml version="1.0" encoding="UTF-8" standalone="no"?>
<svg
   version="1.0"
   width="192.000000pt"
   height="189.000000pt"
   viewBox="0 0 192.000000 189.000000"
   preserveAspectRatio="xMidYMid meet"
   id="svg632"
   sodipodi:docname="cccc.svg"
   inkscape:version="1.2 (dc2aeda, 2022-05-15)"
   xmlns:inkscape="http://www.inkscape.org/namespaces/inkscape"
   xmlns:sodipodi="http://sodipodi.sourceforge.net/DTD/sodipodi-0.dtd"
   xmlns="http://www.w3.org/2000/svg"
   xmlns:svg="http://www.w3.org/2000/svg">
  <defs
     id="defs636" />
  <sodipodi:namedview
     id="namedview634"
     pagecolor="#ffffff"
     bordercolor="#666666"
     borderopacity="1.0"
     inkscape:showpageshadow="2"
     inkscape:pageopacity="0.0"
     inkscape:pagecheckerboard="0"
     inkscape:deskcolor="#d1d1d1"
     inkscape:document-units="pt"
     showgrid="false"
     inkscape:zoom="1.0833333"
     inkscape:cx="241.84615"
     inkscape:cy="206.30769"
     inkscape:window-width="1364"
     inkscape:window-height="717"
     inkscape:window-x="0"
     inkscape:window-y="20"
     inkscape:window-maximized="0"
     inkscape:current-layer="svg632" />
  <metadata
     id="metadata520">
Created by potrace 1.10, written by Peter Selinger 2001-2011
</metadata>
  <path
     d="m 160,24.6 c -3.3,2.9 -9,13.1 -9,16.3 0,4 1.9,3 3.8,-2.1 2.1,-5.7 3.8,-6.7 8.6,-4.9 1.7,0.7 3.3,2.5 4.3,4.8 2.3,5.5 0.5,20.1 -4.7,37.3 -7.4,24.8 -10.3,37.3 -11.5,49 l -0.5,5.5 2,-4 c 1.1,-2.2 2,-4.9 2,-6 0,-2.6 3.7,-21.4 5.5,-28.5 0.8,-3 3.3,-11.1 5.5,-18 5.1,-15.5 6.9,-23.2 8,-33.5 1,-10 -0.4,-14.4 -5.6,-16.8 -4.5,-2.2 -4.7,-2.2 -8.4,0.9 z"
     id="path526"
     style="fill:#000000;stroke:none;stroke-width:0.1"
     sodipodi:nodetypes="csccccccssccccc" />
  <path
     d="M 51.5,35 C 40.6,46.1 36.1,47 32.4,38.5 l -1.2,-3 -0.8,3 c -0.4,1.6 -1.3,4.3 -2.1,5.8 -1.3,2.6 -1.3,3.2 0.9,6.3 1.3,1.8 2.8,3.5 3.3,3.7 2.9,1.1 8.4,-2 14.6,-8.1 11.6,-11.6 10.1,-11 15.2,-6.8 2.4,1.9 4.9,4.7 5.7,6.1 1.7,3.2 2.6,3.2 3.8,-0.4 0.6,-1.7 2.4,-3.7 4.2,-4.6 5.2,-2.7 10.2,-0.2 19.7,9.9 4.3,4.6 8.8,8.8 10,9.5 6.3,3.3 12.8,-0.6 17.4,-10.3 1.6,-3.3 2.7,-6.2 2.4,-6.4 -0.2,-0.2 -1.8,1.2 -3.4,3.1 -6.2,7 -11.4,5.4 -22.3,-6.7 -7.1,-7.8 -14.3,-12.2 -18.3,-11.2 -1.4,0.4 -4,2.2 -6,4.1 -1.9,2 -3.5,3 -3.5,2.2 0,-1.8 -7.9,-7.7 -10.5,-7.7 -1.3,0 -5.1,3 -10,8 z"
     id="path538"
     style="fill:#000000;stroke:none;stroke-width:0.1"
     sodipodi:nodetypes="ccccccccccccccccccccssc" />
  <path
     d="m 110.5,55.6 c 1.7,1.7 2.2,1.7 2.8,0.1 0.3,-0.7 -0.5,-1.3 -1.9,-1.3 -2,-0.2 -2.1,0 -0.9,1.2 z"
     id="path540"
     style="fill:#000000;stroke:none;stroke-width:0.1" />
  <path
     d="m 146,45 c -1.7,4.1 -7.8,9 -11.2,9 -1.6,0 -3.3,-0.8 -4.1,-2 -1.3,-1.9 -1.5,-1.8 -4.1,3.1 -3.2,6.2 -3.2,6.5 -0.1,8.5 6.3,4.1 15.9,-4.4 21.5,-19.2 1.4,-3.5 -0.5,-3 -2,0.6 z"
     id="path568"
     style="fill:#000000;stroke:none;stroke-width:0.1"
     sodipodi:nodetypes="csccccc" />
  <path
     d="m 63.4,50.7 c -1.5,2.1 -3.9,5.4 -5.3,7.3 -6.9,9.3 -13.5,21.1 -14.5,25.7 -0.6,2.7 -0.3,3.4 1.9,4.9 2.4,1.5 2.8,1.5 6.9,0 2.4,-0.9 7.8,-4.6 12.1,-8.1 4.3,-3.6 8.1,-6.5 8.6,-6.5 0.8,0 7.2,-10 6.7,-10.5 -0.2,-0.2 -2.4,1.4 -4.8,3.6 -6.1,5.4 -15,11.4 -18,12.2 -4.2,1.1 -7,-0.2 -7,-3.2 0.1,-3.3 1.7,-6.2 10.4,-18.5 3.7,-5.3 6.6,-9.9 6.3,-10.2 -0.3,-0.3 -1.8,1.2 -3.3,3.3 z"
     id="path576"
     style="fill:#000000;stroke:none;stroke-width:0.1"
     sodipodi:nodetypes="scccccssccccss" />
  <path
     d="m 84.1,62.8 c -2.6,4 -2.8,4.9 -1.6,6.1 2.246783,0.726308 3.9337,3.066541 4.7,5.3 1.7,3.4 2.2,6 2.3,12 0,4.3 0.2,7.8 0.5,7.8 2.6,0 6.6,-15.3 5.7,-21.9 C 95,66.9 92.3,61.4 89.5,59.6 87.3,58.1 87.1,58.2 84.1,62.8 Z"
     id="path594"
     style="fill:#000000;stroke:none;stroke-width:0.1"
     sodipodi:nodetypes="ccccsccc" />
  <path
     d="m 130.9,97.9 c -8,15.3 -14.2,21.6 -15.6,16.1 -0.8,-2.9 -1.5,-2.5 -5,2.8 -6.5,10 -14.2,27.7 -12.7,29.1 0.4,0.3 0.9,0 1.1,-0.6 0.7,-2 9.1,-18.7 10.2,-20.3 0.8,-1.2 1.3,-1.2 3,0.4 2.7,2.4 4.3,1.6 8.4,-3.9 4.4,-6.2 17,-31 16.5,-32.6 -0.2,-0.7 -2.9,3.3 -5.9,9 z"
     id="path606"
     style="fill:#000000;stroke:none;stroke-width:0.1"
     sodipodi:nodetypes="cccccccccc" />
  <path
     d="m 93.2,110.7 c -2.2,3.7 -7.7,11.7 -12.1,17.8 -18.8,25.5 -22.4,30.9 -25.2,37.7 -1.6,3.9 -2.6,7.4 -2.3,7.7 0.4,0.3 0.9,0 1.1,-0.6 0.7,-1.9 9.3,-14.6 15.6,-23.3 12.2,-16.4 22.8,-32.9 25.2,-39 1.4,-3.5 2.3,-6.5 2.1,-6.7 -0.2,-0.2 -2.2,2.7 -4.4,6.4 z"
     id="path614"
     style="fill:#000000;stroke:none;stroke-width:0.1" />
</svg>
