<?xml version="1.0" standalone="no"?>
<!DOCTYPE svg PUBLIC "-//W3C//DTD SVG 20010904//EN"
 "http://www.w3.org/TR/2001/REC-SVG-20010904/DTD/svg10.dtd">
<svg version="1.0" xmlns="http://www.w3.org/2000/svg"
 width="192.000000pt" height="189.000000pt" viewBox="0 0 192.000000 189.000000"
 preserveAspectRatio="xMidYMid meet">
<metadata>
Created by potrace 1.10, written by Peter Selinger 2001-2011
</metadata>
<g transform="translate(0.000000,189.000000) scale(0.100000,-0.100000)"
fill="#000000" stroke="none">
<path d="M1677 1689 c7 -7 15 -10 18 -7 3 3 -2 9 -12 12 -14 6 -15 5 -6 -5z"/>
<path d="M1720 1696 c0 -2 8 -10 18 -17 15 -13 16 -12 3 4 -13 16 -21 21 -21
13z"/>
<path d="M1600 1644 c-33 -29 -90 -131 -90 -163 0 -40 19 -30 38 21 21 57 38
67 86 49 17 -7 33 -25 43 -48 23 -55 5 -201 -47 -373 -74 -248 -103 -373 -115
-490 l-5 -55 20 40 c11 22 20 49 20 60 0 26 37 214 55 285 8 30 33 111 55 180
51 155 69 232 80 335 10 100 -4 144 -56 168 -45 22 -47 22 -84 -9z m66 -22 c4
4 15 -4 26 -17 14 -18 18 -36 15 -62 -3 -33 -5 -35 -12 -16 -4 13 -11 20 -16
17 -5 -3 -9 3 -9 12 0 10 -3 15 -6 11 -4 -3 -13 1 -22 9 -8 9 -22 14 -31 11
-11 -3 -17 2 -17 14 0 10 3 16 7 14 3 -3 15 2 25 9 14 11 21 11 26 3 4 -6 10
-8 14 -5z"/>
<path d="M1743 1645 c0 -8 4 -12 9 -9 5 3 6 10 3 15 -9 13 -12 11 -12 -6z"/>
<path d="M576 1642 c-2 -4 4 -8 14 -8 10 0 16 4 14 8 -3 4 -9 8 -14 8 -5 0
-11 -4 -14 -8z"/>
<path d="M759 1642 c9 -7 10 -11 2 -15 -7 -4 -8 -5 0 -3 15 2 13 20 -3 24 -10
3 -10 2 1 -6z"/>
<path d="M925 1620 c-3 -6 1 -7 9 -4 18 7 21 14 7 14 -6 0 -13 -4 -16 -10z"/>
<path d="M505 1609 c-4 -6 -5 -12 -2 -15 2 -3 7 2 10 11 7 17 1 20 -8 4z"/>
<path d="M515 1540 c-109 -111 -154 -120 -191 -35 l-12 30 -8 -30 c-4 -16 -13
-43 -21 -58 -13 -26 -13 -32 9 -63 13 -18 28 -35 33 -37 29 -11 84 20 146 81
116 116 101 110 152 68 24 -19 49 -47 57 -61 17 -32 26 -32 38 4 6 17 24 37
42 46 52 27 102 2 197 -99 43 -46 88 -88 100 -95 63 -33 128 6 174 103 16 33
27 62 24 64 -2 2 -18 -12 -34 -31 -62 -70 -114 -54 -223 67 -71 78 -143 122
-183 112 -14 -4 -40 -22 -60 -41 -19 -20 -35 -30 -35 -22 0 18 -79 77 -105 77
-13 0 -51 -30 -100 -80z m101 24 c-4 -10 -2 -12 6 -8 6 4 8 3 4 -4 -3 -6 -2
-13 3 -17 6 -3 8 5 5 20 -4 26 -4 26 25 10 16 -8 37 -25 45 -37 15 -21 14 -23
-4 -33 -12 -6 -17 -15 -13 -20 4 -4 -14 13 -41 38 -36 35 -53 44 -62 36 -9 -7
-12 -6 -9 8 2 10 4 18 4 18 1 1 10 1 22 2 15 1 19 -3 15 -13z m237 4 c29 -17
38 -30 32 -46 -3 -7 -1 -10 4 -7 5 3 12 1 16 -5 3 -5 11 -10 17 -10 6 0 1 11
-12 25 -13 14 -20 25 -16 25 4 0 18 -12 32 -27 18 -19 24 -22 20 -10 -3 11 -2
16 4 12 6 -4 8 -18 6 -32 -4 -18 -1 -23 9 -19 9 3 12 0 8 -10 -5 -13 -9 -12
-27 5 -34 32 -43 25 -11 -9 20 -21 31 -26 36 -18 11 18 42 20 35 2 -4 -10 0
-14 11 -12 13 2 18 -4 18 -22 0 -19 5 -25 24 -26 13 -1 27 -7 31 -14 4 -7 13
-9 20 -5 9 5 11 4 6 -3 -4 -7 -2 -12 3 -12 6 0 11 6 11 13 0 9 3 8 9 -2 5 -7
14 -10 20 -7 6 4 11 3 11 -1 0 -15 -44 -37 -77 -38 -18 -1 -30 2 -27 7 3 4 0
8 -5 8 -18 0 -71 62 -64 74 4 6 0 5 -9 -2 -14 -11 -16 -10 -11 9 4 15 2 20 -5
15 -6 -4 -23 7 -38 23 -15 17 -31 28 -36 25 -5 -3 -7 0 -6 6 2 6 -19 19 -47
29 -53 18 -69 47 -25 44 14 -1 18 0 8 3 -19 6 -25 24 -8 24 6 0 20 -6 33 -12z
m-88 -48 c3 -6 -1 -7 -9 -4 -18 7 -21 14 -7 14 6 0 13 -4 16 -10z m-433 -80
c2 -6 13 -12 25 -13 12 0 19 -5 17 -9 -3 -5 -11 -5 -17 -2 -9 5 -8 3 0 -6 10
-11 16 -10 32 4 11 10 22 13 25 8 3 -5 -1 -15 -9 -22 -8 -7 -15 -10 -15 -7 0
3 -16 -1 -35 -9 -30 -12 -34 -12 -29 0 3 8 12 12 21 9 10 -4 7 3 -7 20 -13 15
-26 24 -29 21 -3 -4 0 -9 7 -11 16 -6 16 -20 -1 -26 -9 -3 -12 4 -11 22 2 31
2 31 13 31 5 0 11 -5 13 -10z"/>
<path d="M1105 1334 c17 -17 22 -17 28 -1 3 7 -5 13 -19 13 -20 2 -21 0 -9
-12z"/>
<path d="M940 1600 c-9 -6 -10 -10 -3 -10 6 0 15 5 18 10 8 12 4 12 -15 0z"/>
<path d="M245 1559 c-4 -6 -5 -12 -2 -15 2 -3 7 2 10 11 7 17 1 20 -8 4z"/>
<path d="M275 1559 c-4 -6 -5 -12 -2 -15 2 -3 7 2 10 11 7 17 1 20 -8 4z"/>
<path d="M306 1558 c3 -5 10 -6 15 -3 13 9 11 12 -6 12 -8 0 -12 -4 -9 -9z"/>
<path d="M340 1566 c0 -2 8 -10 18 -17 15 -13 16 -12 3 4 -13 16 -21 21 -21
13z"/>
<path d="M964 1558 c-4 -7 -4 -10 1 -6 4 4 15 2 24 -5 14 -11 14 -10 2 6 -16
20 -18 21 -27 5z"/>
<path d="M390 1551 c0 -6 4 -13 10 -16 6 -3 7 1 4 9 -7 18 -14 21 -14 7z"/>
<path d="M1471 1524 c0 -11 3 -14 6 -6 3 7 2 16 -1 19 -3 4 -6 -2 -5 -13z"/>
<path d="M1595 1510 c3 -5 8 -10 11 -10 2 0 4 5 4 10 0 6 -5 10 -11 10 -5 0
-7 -4 -4 -10z"/>
<path d="M1205 1479 c-3 -4 2 -6 10 -5 21 3 28 13 10 13 -9 0 -18 -4 -20 -8z"/>
<path d="M1250 1486 c0 -2 7 -7 16 -10 8 -3 12 -2 9 4 -6 10 -25 14 -25 6z"/>
<path d="M1449 1473 c-13 -16 -12 -17 4 -4 9 7 17 15 17 17 0 8 -8 3 -21 -13z"/>
<path d="M1089 1453 c-13 -16 -12 -17 4 -4 9 7 17 15 17 17 0 8 -8 3 -21 -13z"/>
<path d="M1460 1440 c-17 -41 -78 -90 -112 -90 -16 0 -33 8 -41 20 -13 19 -15
18 -41 -31 -32 -62 -32 -65 -1 -85 63 -41 159 44 215 192 14 35 -5 30 -20 -6z
m-146 -121 c-8 -13 40 -11 53 2 9 9 11 7 9 -7 -2 -13 -10 -18 -25 -16 -13 2
-31 -4 -41 -13 -18 -16 -19 -15 -17 18 1 23 6 33 14 30 7 -3 10 -9 7 -14z
m-33 -22 c-10 -9 -11 -8 -5 6 3 10 9 15 12 12 3 -3 0 -11 -7 -18z"/>
<path d="M1570 1461 c0 -6 4 -13 10 -16 6 -3 7 1 4 9 -7 18 -14 21 -14 7z"/>
<path d="M516 1441 c-3 -5 1 -14 8 -20 10 -9 16 -9 21 -1 4 6 1 9 -7 8 -7 -2
-12 3 -10 10 2 14 -4 16 -12 3z"/>
<path d="M1105 1440 c-3 -5 -1 -10 4 -10 6 0 11 5 11 10 0 6 -2 10 -4 10 -3 0
-8 -4 -11 -10z"/>
<path d="M634 1383 c-15 -21 -39 -54 -53 -73 -69 -93 -135 -211 -145 -257 -6
-27 -3 -34 19 -49 24 -15 28 -15 69 0 24 9 78 46 121 81 43 36 81 65 86 65 8
0 72 100 67 105 -2 2 -24 -14 -48 -36 -61 -54 -150 -114 -180 -122 -42 -11
-70 2 -70 32 1 33 17 62 104 185 37 53 66 99 63 102 -3 3 -18 -12 -33 -33z
m-92 -313 c14 -5 28 -7 30 -7 2 1 -4 -5 -14 -15 -10 -9 -26 -14 -37 -11 -10 3
-22 0 -25 -6 -4 -5 -13 -8 -21 -5 -8 4 -12 10 -9 15 3 5 11 6 17 2 7 -4 6 0
-2 10 -8 10 -9 17 -3 17 6 0 14 -5 17 -10 4 -6 11 -7 17 -4 6 4 1 13 -13 21
-17 10 -18 13 -4 8 11 -4 32 -11 47 -15z"/>
<path d="M535 1050 c-3 -6 1 -7 9 -4 18 7 21 14 7 14 -6 0 -13 -4 -16 -10z"/>
<path d="M564 1402 c4 -3 14 -7 22 -8 9 -1 13 0 10 4 -4 3 -14 7 -22 8 -9 1
-13 0 -10 -4z"/>
<path d="M252 1378 c7 -13 11 -30 10 -38 -1 -10 1 -11 4 -2 3 6 10 9 16 6 6
-4 0 7 -13 25 -27 36 -35 40 -17 9z"/>
<path d="M703 1351 c0 -11 5 -18 9 -15 4 3 5 11 1 19 -7 21 -12 19 -10 -4z"/>
<path d="M431 1357 c2 -1 13 -9 24 -17 19 -14 19 -14 6 3 -7 9 -18 17 -24 17
-6 0 -8 -1 -6 -3z"/>
<path d="M925 1341 c-3 -5 -2 -12 3 -15 5 -3 9 1 9 9 0 17 -3 19 -12 6z"/>
<path d="M504 1319 c-11 -18 11 -32 25 -16 9 12 8 16 -3 20 -9 4 -18 1 -22 -4z"/>
<path d="M836 1314 c-23 -23 -20 -30 4 -9 11 10 20 20 20 22 0 7 -9 2 -24 -13z"/>
<path d="M841 1262 c-26 -40 -28 -49 -16 -61 11 -11 17 -12 28 -3 8 7 16 10
18 7 3 -2 6 6 6 18 2 17 0 18 -7 7 -7 -12 -11 -12 -20 -2 -5 6 -7 10 -4 7 4
-3 13 0 20 6 8 7 14 7 19 -1 3 -6 11 -8 16 -5 9 6 13 -7 9 -39 -1 -13 2 -16
12 -10 7 4 10 4 6 -1 -4 -4 -4 -15 1 -24 4 -9 3 -25 -4 -38 -11 -21 -11 -21
-22 8 -6 16 -7 29 -2 29 5 0 9 -7 9 -16 0 -8 5 -12 10 -9 7 4 7 13 0 26 -6 11
-15 17 -20 14 -6 -3 -7 0 -4 8 3 10 -2 13 -18 11 -13 -1 -24 -3 -26 -3 -1 -1
8 -20 20 -43 17 -34 22 -60 23 -120 0 -43 2 -78 5 -78 26 0 66 153 57 219 -7
52 -34 107 -62 125 -22 15 -24 14 -54 -32z"/>
<path d="M965 1260 c-3 -6 1 -7 9 -4 18 7 21 14 7 14 -6 0 -13 -4 -16 -10z"/>
<path d="M1288 1203 c6 -2 18 -2 25 0 6 3 1 5 -13 5 -14 0 -19 -2 -12 -5z"/>
<path d="M646 1183 c-6 -14 -5 -15 5 -6 7 7 10 15 7 18 -3 3 -9 -2 -12 -12z"/>
<path d="M767 1105 c3 -8 9 -12 14 -9 12 7 11 11 -5 17 -10 4 -13 1 -9 -8z"/>
<path d="M1309 993 c-13 -16 -12 -17 4 -4 16 13 21 21 13 21 -2 0 -10 -8 -17
-17z"/>
<path d="M1309 911 c-80 -153 -142 -216 -156 -161 -8 29 -15 25 -50 -28 -65
-100 -142 -277 -127 -291 4 -3 9 0 11 6 7 20 91 187 102 203 8 12 13 12 30 -4
27 -24 43 -16 84 39 44 62 170 310 165 326 -2 7 -29 -33 -59 -90z m-141 -207
c5 3 9 -1 9 -8 0 -8 -6 -12 -13 -9 -6 2 -15 -1 -20 -8 -4 -7 -3 -10 4 -5 17
11 23 -11 6 -25 -12 -10 -15 -10 -12 2 2 9 -4 13 -17 11 -15 -2 -17 -1 -6 6
11 8 11 10 0 14 -11 4 -12 8 -2 20 7 8 9 19 5 24 -4 5 3 1 15 -10 12 -10 26
-15 31 -12z"/>
<path d="M1531 954 c0 -11 3 -14 6 -6 3 7 2 16 -1 19 -3 4 -6 -2 -5 -13z"/>
<path d="M538 953 c7 -3 16 -2 19 1 4 3 -2 6 -13 5 -11 0 -14 -3 -6 -6z"/>
<path d="M1661 944 c0 -11 3 -14 6 -6 3 7 2 16 -1 19 -3 4 -6 -2 -5 -13z"/>
<path d="M932 783 c-22 -37 -77 -117 -121 -178 -188 -255 -224 -309 -252 -377
-16 -39 -26 -74 -23 -77 4 -3 9 0 11 6 7 19 93 146 156 233 122 164 228 329
252 390 14 35 23 65 21 67 -2 2 -22 -27 -44 -64z"/>
<path d="M1346 813 c-6 -14 -5 -15 5 -6 7 7 10 15 7 18 -3 3 -9 -2 -12 -12z"/>
<path d="M806 737 c3 -10 9 -15 12 -12 3 3 0 11 -7 18 -10 9 -11 8 -5 -6z"/>
<path d="M936 673 c-4 -9 -3 -20 1 -24 4 -4 9 3 9 17 2 28 -1 31 -10 7z"/>
<path d="M690 515 c-7 -8 -17 -12 -23 -8 -6 4 -7 1 -3 -6 6 -9 13 -8 27 5 10
9 19 19 19 21 0 7 -8 2 -20 -12z"/>
<path d="M760 406 c0 -2 7 -7 16 -10 8 -3 12 -2 9 4 -6 10 -25 14 -25 6z"/>
<path d="M980 391 c0 -6 4 -13 10 -16 6 -3 7 1 4 9 -7 18 -14 21 -14 7z"/>
<path d="M500 226 c0 -8 4 -17 9 -20 5 -4 7 3 4 14 -6 23 -13 26 -13 6z"/>
</g>
</svg>
